<svg xmlns="http://www.w3.org/2000/svg" xmlns:xlink="http://www.w3.org/1999/xlink" width="500" zoomAndPan="magnify" viewBox="0 0 375 149.999998" height="200" preserveAspectRatio="xMidYMid meet" version="1.0"><defs><g/><clipPath id="426a42edd8"><path d="M 13 34 L 99 34 L 99 116.277344 L 13 116.277344 Z M 13 34 " clip-rule="nonzero"/></clipPath></defs><g fill="#101828" fill-opacity="1"><g transform="translate(121.111402, 110.249996)"><g><path d="M 7.296875 -63.90625 L 19.484375 -63.90625 L 19.484375 0 L 7.296875 0 Z M 7.296875 -63.90625 "/></g></g></g><g fill="#101828" fill-opacity="1"><g transform="translate(146.118126, 110.249996)"><g><path d="M 17.796875 -47.265625 L 17.796875 -42.453125 C 20.234375 -44.472656 22.546875 -45.984375 24.734375 -46.984375 C 26.929688 -47.992188 29.273438 -48.5 31.765625 -48.5 C 34.734375 -48.5 37.445312 -47.847656 39.90625 -46.546875 C 42.375 -45.242188 44.332031 -43.359375 45.78125 -40.890625 C 47.238281 -38.429688 47.96875 -35.570312 47.96875 -32.3125 L 47.96875 0 L 36.140625 0 L 36.140625 -22.34375 C 36.140625 -25.894531 35.957031 -28.738281 35.59375 -30.875 C 35.238281 -33.019531 34.484375 -34.679688 33.328125 -35.859375 C 32.171875 -37.046875 30.4375 -37.640625 28.125 -37.640625 C 26.164062 -37.640625 24.398438 -37.09375 22.828125 -36 C 21.253906 -34.90625 20.019531 -33.289062 19.125 -31.15625 C 18.238281 -29.019531 17.796875 -26.40625 17.796875 -23.3125 L 17.796875 0 L 5.96875 0 L 5.96875 -47.265625 Z M 17.796875 -47.265625 "/></g></g></g><g fill="#101828" fill-opacity="1"><g transform="translate(197.733495, 110.249996)"><g><path d="M 36.84375 -47.265625 L 48.859375 -47.265625 L 29.1875 0 L 20.640625 0 L 0.890625 -47.265625 L 13 -47.265625 L 24.921875 -16.203125 Z M 36.84375 -47.265625 "/></g></g></g><g fill="#101828" fill-opacity="1"><g transform="translate(245.789179, 110.249996)"><g><path d="M 28.296875 1.25 C 23.378906 1.25 19.050781 0.148438 15.3125 -2.046875 C 11.570312 -4.242188 8.675781 -7.238281 6.625 -11.03125 C 4.582031 -14.832031 3.5625 -19.046875 3.5625 -23.671875 C 3.5625 -28.003906 4.566406 -32.066406 6.578125 -35.859375 C 8.597656 -39.660156 11.460938 -42.71875 15.171875 -45.03125 C 18.878906 -47.34375 23.195312 -48.5 28.125 -48.5 C 33.050781 -48.5 37.410156 -47.398438 41.203125 -45.203125 C 45.003906 -43.015625 47.957031 -39.976562 50.0625 -36.09375 C 52.164062 -32.207031 53.21875 -27.800781 53.21875 -22.875 C 53.21875 -21.800781 53.191406 -20.910156 53.140625 -20.203125 L 15.046875 -20.203125 C 15.640625 -16.765625 17.132812 -14.078125 19.53125 -12.140625 C 21.9375 -10.210938 24.859375 -9.25 28.296875 -9.25 C 30.972656 -9.25 33.300781 -9.664062 35.28125 -10.5 C 37.269531 -11.332031 39.332031 -12.664062 41.46875 -14.5 L 49.921875 -7.46875 C 44.523438 -1.65625 37.316406 1.25 28.296875 1.25 Z M 41.296875 -29.546875 C 40.523438 -32.273438 38.96875 -34.441406 36.625 -36.046875 C 34.28125 -37.648438 31.503906 -38.453125 28.296875 -38.453125 C 25.335938 -38.453125 22.757812 -37.707031 20.5625 -36.21875 C 18.363281 -34.738281 16.703125 -32.515625 15.578125 -29.546875 Z M 41.296875 -29.546875 "/></g></g></g><g fill="#101828" fill-opacity="1"><g transform="translate(300.697253, 110.249996)"><g><path d="M 18.78125 1.25 C 15.332031 1.25 12.226562 0.566406 9.46875 -0.796875 C 6.71875 -2.160156 4.300781 -4.179688 2.21875 -6.859375 L 9.515625 -14.859375 C 10.941406 -13.253906 12.5625 -11.929688 14.375 -10.890625 C 16.1875 -9.859375 17.863281 -9.34375 19.40625 -9.34375 C 20.882812 -9.34375 22.128906 -9.710938 23.140625 -10.453125 C 24.148438 -11.191406 24.65625 -12.097656 24.65625 -13.171875 C 24.65625 -13.878906 24.445312 -14.515625 24.03125 -15.078125 C 23.613281 -15.648438 22.941406 -16.242188 22.015625 -16.859375 C 21.097656 -17.484375 19.753906 -18.242188 17.984375 -19.140625 C 14.484375 -20.921875 11.738281 -22.582031 9.75 -24.125 C 7.757812 -25.664062 6.300781 -27.28125 5.375 -28.96875 C 4.457031 -30.65625 4 -32.628906 4 -34.890625 C 4 -37.316406 4.648438 -39.582031 5.953125 -41.6875 C 7.265625 -43.800781 9.078125 -45.460938 11.390625 -46.671875 C 13.703125 -47.890625 16.34375 -48.5 19.3125 -48.5 C 22.394531 -48.5 25.285156 -47.832031 27.984375 -46.5 C 30.691406 -45.164062 32.992188 -43.222656 34.890625 -40.671875 L 27.59375 -33.28125 C 26.164062 -34.707031 24.785156 -35.789062 23.453125 -36.53125 C 22.117188 -37.269531 20.769531 -37.640625 19.40625 -37.640625 C 18.15625 -37.640625 17.128906 -37.390625 16.328125 -36.890625 C 15.523438 -36.390625 15.125 -35.691406 15.125 -34.796875 C 15.125 -33.960938 15.453125 -33.28125 16.109375 -32.75 C 16.765625 -32.21875 17.863281 -31.597656 19.40625 -30.890625 C 23.5 -28.929688 26.703125 -27.132812 29.015625 -25.5 C 31.328125 -23.863281 33.03125 -22.109375 34.125 -20.234375 C 35.226562 -18.367188 35.78125 -16.132812 35.78125 -13.53125 C 35.78125 -10.738281 35.082031 -8.210938 33.6875 -5.953125 C 32.289062 -3.703125 30.300781 -1.9375 27.71875 -0.65625 C 25.144531 0.613281 22.164062 1.25 18.78125 1.25 Z M 18.78125 1.25 "/></g></g></g><g fill="#101828" fill-opacity="1"><g transform="translate(338.073884, 110.249996)"><g><path d="M 7.390625 -37.03125 L 1.328125 -37.03125 L 1.328125 -47.265625 L 7.390625 -47.265625 L 7.390625 -64.703125 L 19.21875 -64.703125 L 19.21875 -47.265625 L 26.25 -47.265625 L 26.25 -37.03125 L 19.21875 -37.03125 L 19.21875 0 L 7.390625 0 Z M 7.390625 -37.03125 "/></g></g></g><g clip-path="url(#426a42edd8)"><path fill="#1e7376" d="M 56.0625 34.042969 C 58.421875 34.976562 68.480469 39.566406 68.480469 49.5 C 68.480469 58.464844 63.433594 67.789062 57.800781 74.746094 C 57.523438 74.636719 57.617188 76.132812 57.617188 57.28125 C 57.617188 56.421875 56.921875 55.726562 56.0625 55.726562 C 55.207031 55.726562 54.511719 56.421875 54.511719 57.28125 L 54.511719 73.503906 C 52.636719 70.683594 50.53125 68.027344 48.210938 65.5625 C 45.394531 60.667969 43.828125 55.148438 43.648438 49.5 C 43.648438 39.597656 53.703125 34.992188 56.0625 34.042969 Z M 57.617188 79.074219 C 57.617188 79.933594 56.921875 80.632812 56.0625 80.632812 C 55.207031 80.632812 54.511719 79.933594 54.511719 79.074219 C 54.511719 78.214844 55.207031 77.519531 56.0625 77.519531 C 56.921875 77.519531 57.617188 78.214844 57.617188 79.074219 Z M 24.1875 81.78125 C 14.796875 78.671875 13.523438 67.695312 13.324219 65.160156 C 14.875 63.199219 22.386719 55.023438 31.808594 58.089844 C 40.328125 60.878906 47.574219 68.503906 52.449219 76.101562 C 52.246094 76.289062 53.765625 76.675781 35.84375 70.855469 C 35.039062 70.625 34.199219 71.074219 33.941406 71.871094 C 33.683594 72.664062 34.097656 73.523438 34.878906 73.8125 L 50.257812 78.824219 C 46.992188 79.753906 43.808594 80.957031 40.746094 82.421875 C 35.257812 83.570312 29.570312 83.351562 24.1875 81.78125 Z M 48.769531 110.316406 C 42.980469 118.332031 32.148438 116.136719 29.679688 115.515625 C 28.316406 113.351562 22.882812 103.683594 28.6875 95.683594 C 33.902344 88.492188 43.539062 83.839844 52.136719 81.566406 C 52.277344 81.78125 52.992188 80.664062 42.035156 95.792969 C 41.625 96.488281 41.8125 97.382812 42.464844 97.851562 C 43.121094 98.320312 44.023438 98.210938 44.546875 97.597656 L 54.0625 84.460938 C 53.925781 87.84375 54.078125 91.234375 54.511719 94.59375 C 53.933594 100.234375 51.960938 105.636719 48.769531 110.316406 Z M 83.441406 95.683594 C 89.246094 103.683594 83.8125 113.351562 82.445312 115.515625 C 79.980469 116.136719 69.148438 118.332031 63.359375 110.316406 C 58.066406 103.015625 56.714844 92.507812 57.148438 83.589844 C 57.414062 83.589844 56.515625 82.390625 67.53125 97.597656 C 67.820312 98.128906 68.386719 98.441406 68.988281 98.40625 C 69.585938 98.371094 70.113281 97.992188 70.335938 97.433594 C 70.558594 96.871094 70.441406 96.234375 70.03125 95.792969 L 60.5625 82.65625 C 63.773438 83.847656 67.074219 84.769531 70.433594 85.410156 C 75.539062 87.722656 80.003906 91.25 83.441406 95.683594 Z M 60.71875 79.371094 C 60.71875 79.105469 59.554688 79.589844 77.230469 73.8125 C 78.015625 73.523438 78.429688 72.664062 78.171875 71.871094 C 77.914062 71.074219 77.074219 70.625 76.269531 70.855469 L 60.890625 75.804688 C 62.980469 73.125 64.847656 70.277344 66.476562 67.292969 C 70.257812 63.125 74.992188 59.945312 80.273438 58.03125 C 89.585938 54.917969 97.144531 63.136719 98.757812 65.097656 C 98.601562 67.648438 97.359375 78.65625 87.894531 81.722656 C 79.4375 84.570312 69.101562 82.640625 60.71875 79.371094 Z M 60.71875 79.371094 " fill-opacity="1" fill-rule="nonzero"/></g></svg>