<svg fill="none" height="512" viewBox="0 0 24 24" width="512" xmlns="http://www.w3.org/2000/svg"><g clip-rule="evenodd" fill="rgb(0,0,0)" fill-rule="evenodd"><path fill="currentColor" d="m8.75178 5.29961c-.69353.79068-1.08511 1.93703-1.08511 3.30039v1.7333c0 .8606-.38729 1.5755-.79785 2.1202-.37547.4982-.84306.9455-1.21025 1.2967-.03083.0295-.06096.0583-.09026.0864-.3435.3296-.56831.777-.56831 1.2967 0 .5252.39364.8667.77778.8667h12.44442c.3842 0 .7778-.3415.7778-.8667 0-.5197-.2248-.9671-.5683-1.2967-.0293-.0281-.0594-.0569-.0903-.0864-.3672-.3512-.8348-.7985-1.2102-1.2967-.4106-.5447-.7979-1.2596-.7979-2.1202v-1.7333c0-1.36336-.3916-2.50971-1.0851-3.30038-.6769-.7718-1.7231-1.29962-3.2482-1.29962s-2.57125.52782-3.24822 1.29961zm-1.50356-1.31882c1.10081-1.25501 2.72128-1.98079 4.75178-1.98079s3.651.72578 4.7518 1.98079c1.0842 1.23613 1.5815 2.88978 1.5815 4.61921v1.7333c0 .2441.1095.5376.395.9165.2737.3631.629.7036 1.0215 1.0798.022.0212.0442.0424.0665.0638.6837.656 1.1837 1.6062 1.1837 2.7399 0 1.5367-1.1982 2.8667-2.7778 2.8667h-12.44442c-1.57954 0-2.77778-1.33-2.77778-2.8667 0-1.1337.49997-2.0839 1.18372-2.7399.02228-.0214.04445-.0426.0665-.0638.39248-.3762.74776-.7167 1.02144-1.0798.2855-.3789.39501-.6724.39501-.9165v-1.7333c0-1.72943.4973-3.38308 1.58155-4.61921z"/><path fill="currentColor" d="m9.44304 19.1694c.45869-.3076 1.07986-.1851 1.38746.2736.0994.1482.2538.288.4614.3915.2079.1035.4526.1619.7081.1619.2556 0 .5002-.0584.7081-.1619.2076-.1035.362-.2433.4614-.3915.3076-.4587.9288-.5812 1.3875-.2736.4587.3077.5812.9289.2735 1.3876-.3071.4579-.7361.8213-1.2305 1.0676-.4942.2462-1.0454.3718-1.6.3718s-1.1058-.1256-1.6-.3718c-.49435-.2463-.9234-.6097-1.23052-1.0676-.30761-.4587-.18513-1.0799.27356-1.3876z"/></g></svg>
